<svg xmlns="http://www.w3.org/2000/svg" width="512" height="512" xml:space="preserve"><circle fill="#9ACCB0" cx="255.928" cy="256.034" r="256"/><path opacity=".1" d="M505.208 314.783 256.069 65.643 256.016 512c121.149-.008 222.63-84.172 249.192-197.217z"/><path fill="#414042" d="M311.997 308.566c0 25.404-30.596 46-56 46-25.405 0-56-20.596-56-46l10-196.889c0-25.405 20.595-46 46-46s46 20.595 46 46l10 196.889z"/><ellipse fill="#F99" cx="255.603" cy="98.552" rx="28.553" ry="10.982"/><path fill="#414042" d="M272.217 96.761h-32.44c-42.657 0-77.237 44.574-77.237 82.58 0 0-8.119 123.96 93.457 123.96 101.577 0 93.458-123.96 93.458-123.96-.001-38.006-34.581-82.58-77.238-82.58z"/><path opacity=".1" d="m201.139 286.067-1.143 22.499c0 25.404 30.595 46 56 46s56-20.596 56-46l-1.144-22.499c-13.271 10.426-31.052 17.234-54.857 17.234s-41.584-6.808-54.856-17.234z"/><path fill="#FFD0AE" d="M349.658 360.218c-74.441 0-57.833-36.507-62.884-73.06h-61.693c-5.05 36.553 11.558 73.06-62.884 73.06-47.574 0-63.807 20.847-63.807 66.709v30.899c43.44 33.962 98.123 54.208 157.537 54.208 59.415 0 114.098-20.246 157.537-54.207v-30.9c.001-45.863-16.232-66.709-63.806-66.709z"/><path opacity=".1" d="M288.045 308.358c-.161-6.265-.377-12.731-1.271-19.2h-61.693c-.89 6.439-1.107 12.876-1.269 19.113 8.926 5.721 19.539 9.159 32.184 9.159 12.582.001 23.151-3.403 32.049-9.072z"/><path fill="#ECEFC5" d="M349.658 360.218c-9.712 0-17.861-.627-24.725-1.789 0 0-2.14 57.52-69.006 57.52s-69.006-57.52-69.006-57.52c-6.863 1.162-15.012 1.789-24.724 1.789-47.574 0-63.807 20.847-63.807 66.709v30.899c43.44 33.962 98.123 54.208 157.537 54.208 59.415 0 114.098-20.246 157.537-54.207v-30.9c.001-45.863-16.232-66.709-63.806-66.709z"/><ellipse fill="#FFD0AE" cx="181.115" cy="223.474" rx="13.799" ry="16.269"/><ellipse fill="#FFD0AE" cx="330.878" cy="223.474" rx="13.799" ry="16.269"/><path fill="#FFD0AE" d="M269.719 106.703h-27.445c-36.089 0-65.345 42.325-65.345 78.415 0 0 2.113 126.771 79.068 126.771 76.956 0 79.068-126.771 79.068-126.771-.001-36.09-29.256-78.415-65.346-78.415z"/><path fill="#414042" d="M269.719 105.319h-27.444c-36.09 0-89.674 53.056-62.293 119.155 3.714-31.596 28.476-6.103 36.947-50.309 14.035 57.926 110.871 7.051 115.085 50.309 25.264-68.437-26.205-119.155-62.295-119.155z"/><path opacity=".1" d="M216.928 174.165c-8.471 44.207-33.233 18.713-36.947 50.309l.91 2.95c3.669-31.216 28.134-6.029 36.502-49.704 13.866 57.229 109.538 6.966 113.701 49.704l.919-2.95c-4.214-43.258-101.05 7.617-115.085-50.309z"/><path fill="#F6AAA5" d="M325.72 356.034v97.5H188.136v-97.5h-24.5v138.462c28.908 11.318 60.373 17.538 93.292 17.538s64.384-6.22 93.292-17.538V356.034h-24.5z"/><path opacity=".1" d="M325.72 453.534v-95.143a91.8 91.8 0 0 1-2.213-.406v91.455H190.349v-91.455a87.87 87.87 0 0 1-2.212.406v95.143H325.72z"/><path opacity=".7" fill="#FFF" d="M286.063 472.034h39.657v21.25h-39.657z"/><path opacity=".1" d="M325.72 473.328v19.956h-38.364v1.294h39.659v-21.25z"/><circle fill="#58595B" cx="305.891" cy="472.034" r="5"/><path opacity=".1" d="M308.671 468.879a5 5 0 0 1-6.934 6.934 5 5 0 1 0 6.934-6.934z"/></svg>